# xmcd
#
# Track frame offsets:
#	150
#	74157
#	96371
#	117502
#	141912
#	148043
#	175841
#
# Disc length: 2905 seconds
# Revision: 0
# Processed by: cddbd v1.5.2PL0 Copyright (c) Steve Scherf et al.
# Submitted via: dBpowerAMP V12.0
#
DISCID=710b5707
DTITLE=Hale Dwoskin - The Inner Circle Retreat 02 CD 07
DYEAR=2007
DGENRE=Speech
TTITLE0=Release on Being Present
TTITLE1=There Is Nothing to Do
TTITLE2=Imagined Constrictions - Spiritual Beliefs
TTITLE3=Release on Spiritual Beliefs
TTITLE4=Summary of Release
TTITLE5=Fear of Signing a Contract
TTITLE6=Wanting to Hold It All Together
EXTD=
EXTT0=
EXTT1=
EXTT2=
EXTT3=
EXTT4=
EXTT5=
EXTT6=
PLAYORDER=
